<?xml version="1.0" encoding="utf-8"?>
<!-- Generator: Adobe Illustrator 27.1.1, SVG Export Plug-In . SVG Version: 6.00 Build 0)  -->
<svg version="1.1" id="Layer_1" xmlns="http://www.w3.org/2000/svg" xmlns:xlink="http://www.w3.org/1999/xlink" x="0px" y="0px"
	 width="617.114px" height="431.089px" viewBox="0 0 617.114 431.089" enable-background="new 0 0 617.114 431.089"
	 xml:space="preserve">
<path d="M506.982,72c0-9.941-8.059-18-18-18H77.093c-10.728,0-19.075,9.325-17.89,19.988l32,288
	c1.013,9.116,8.718,16.012,17.89,16.012h379.889c9.941,0,18-8.059,18-18v-93.6h54V165.434h-54V72z M91.281,94.891
	c-9.271,1.168-17.068-6.628-15.899-15.899c0.796-6.317,5.897-11.418,12.214-12.214c9.271-1.168,17.068,6.628,15.899,15.9
	C102.699,88.994,97.598,94.095,91.281,94.891z M454.923,305.917c0,9.941-8.059,18-18,18H159.033c-9.172,0-16.877-6.896-17.89-16.012
	l-20-180c-1.185-10.663,7.162-19.988,17.89-19.988h297.889c9.941,0,18,8.059,18,18V305.917z M484.615,365.057
	c-9.271,1.168-17.068-6.628-15.899-15.899c0.796-6.317,5.897-11.418,12.214-12.215c9.271-1.169,17.068,6.628,15.9,15.899
	C496.033,359.16,490.932,364.261,484.615,365.057z"/>
</svg>
