<?xml version="1.0" encoding="utf-8"?>
<!-- Generator: Adobe Illustrator 26.5.0, SVG Export Plug-In . SVG Version: 6.00 Build 0)  -->
<svg version="1.1" id="Layer_1" xmlns="http://www.w3.org/2000/svg" xmlns:xlink="http://www.w3.org/1999/xlink" x="0px" y="0px"
	 width="617.114px" height="431.089px" viewBox="0 0 617.114 431.089" enable-background="new 0 0 617.114 431.089"
	 xml:space="preserve">
<g>
	<path d="M67.679,41.067c-10.728,0-19.075,9.325-17.89,19.988l32,288c1.013,9.116,8.718,16.012,17.89,16.012h451.889v-324H67.679z
		 M445.509,292.984c0,9.941-8.059,18-18,18H149.62c-9.172,0-16.877-6.896-17.89-16.012l-20-180
		c-1.185-10.663,7.162-19.988,17.89-19.988h297.889c9.941,0,18,8.059,18,18V292.984z"/>
	<circle fill="#FFFFFF" stroke="#000000" stroke-width="2" stroke-miterlimit="10" cx="80.026" cy="67.901" r="14.173"/>
	<circle fill="#FFFFFF" stroke="#000000" stroke-width="2" stroke-miterlimit="10" cx="473.359" cy="338.067" r="14.173"/>
</g>
</svg>
