<?xml version="1.0" encoding="utf-8"?>
<!-- Generator: Adobe Illustrator 26.5.0, SVG Export Plug-In . SVG Version: 6.00 Build 0)  -->
<svg version="1.1" id="Layer_1" xmlns="http://www.w3.org/2000/svg" xmlns:xlink="http://www.w3.org/1999/xlink" x="0px" y="0px"
	 width="386.091px" height="140.06px" viewBox="0 0 386.091 140.06" enable-background="new 0 0 386.091 140.06"
	 xml:space="preserve">
<g>
	<path fill="#FFFFFF" stroke="#000000" stroke-width="2" stroke-miterlimit="10" d="M228.754,68.053L228.754,68.053
		c0-11.929-9.671-21.6-21.6-21.6h-43.2c-11.929,0-21.6,9.671-21.6,21.6v0c0,11.929,9.671,21.6,21.6,21.6h43.2
		C219.084,89.653,228.754,79.982,228.754,68.053z"/>
	<circle fill="#FFFFFF" stroke="#000000" stroke-width="2" stroke-miterlimit="10" cx="115.952" cy="68.053" r="14.173"/>
	<circle fill="#FFFFFF" stroke="#000000" stroke-width="2" stroke-miterlimit="10" cx="255.156" cy="68.053" r="14.173"/>
	<rect x="24.551" y="41.136" transform="matrix(6.123234e-17 -1 1 6.123234e-17 -17.582 118.5242)" width="51.84" height="53.834"/>
	
		<rect x="294.634" y="41.136" transform="matrix(6.123234e-17 -1 1 6.123234e-17 252.5012 388.6074)" width="51.84" height="53.834"/>
</g>
</svg>
