<?xml version="1.0" encoding="utf-8"?>
<!-- Generator: Adobe Illustrator 27.1.1, SVG Export Plug-In . SVG Version: 6.00 Build 0)  -->
<svg version="1.1" id="Layer_1" xmlns="http://www.w3.org/2000/svg" xmlns:xlink="http://www.w3.org/1999/xlink" x="0px" y="0px"
	 width="647.117px" height="488.095px" viewBox="0 0 647.117 488.095" enable-background="new 0 0 647.117 488.095"
	 xml:space="preserve">
<path d="M556.907,82H145.018c-9.941,0-18,8.059-18,18v93.6h-54v100.8h54V388c0,9.941,8.059,18,18,18h379.889
	c9.172,0,16.877-6.896,17.89-16.012l32-288C575.982,91.325,567.635,82,556.907,82z M151.228,393.173
	c-7.828,0-14.173-6.346-14.173-14.173s6.345-14.173,14.173-14.173s14.173,6.346,14.173,14.173S159.055,393.173,151.228,393.173z
	 M512.857,155.905l-20,180c-1.013,9.116-8.718,16.012-17.89,16.012H197.077c-9.941,0-18-8.059-18-18v-180c0-9.941,8.059-18,18-18
	h297.889C505.695,135.917,514.041,145.242,512.857,155.905z M544.561,123.007c-7.828,0-14.173-6.346-14.173-14.173
	s6.346-14.173,14.173-14.173c7.828,0,14.173,6.346,14.173,14.173S552.389,123.007,544.561,123.007z"/>
</svg>
