<?xml version="1.0" encoding="utf-8"?>
<!-- Generator: Adobe Illustrator 26.5.0, SVG Export Plug-In . SVG Version: 6.00 Build 0)  -->
<svg version="1.1" id="Layer_1" xmlns="http://www.w3.org/2000/svg" xmlns:xlink="http://www.w3.org/1999/xlink" x="0px" y="0px"
	 width="647.117px" height="488.095px" viewBox="0 0 647.117 488.095" enable-background="new 0 0 647.117 488.095"
	 xml:space="preserve">
<g>
	<path d="M52.101,41.067v324H503.99c9.172,0,16.877-6.896,17.89-16.012l32-288c1.185-10.663-7.162-19.988-17.89-19.988H52.101z
		 M158.16,112.984c0-9.941,8.059-18,18-18H474.05c10.728,0,19.075,9.325,17.89,19.988l-20,180
		c-1.013,9.116-8.718,16.012-17.89,16.012H176.16c-9.941,0-18-8.059-18-18V112.984z"/>
	<circle fill="#FFFFFF" stroke="#000000" stroke-width="2" stroke-miterlimit="10" cx="523.644" cy="67.901" r="14.173"/>
	<circle fill="#FFFFFF" stroke="#000000" stroke-width="2" stroke-miterlimit="10" cx="130.311" cy="338.067" r="14.173"/>
</g>
</svg>
